<mxfile host="app.diagrams.net" modified="2020-12-11T16:12:50.172Z" agent="5.0 (Macintosh; Intel Mac OS X 11_0_1) AppleWebKit/537.36 (KHTML, like Gecko) Chrome/87.0.4280.88 Safari/537.36" etag="eNKCPDorEDxKkWi9ab__" version="14.0.1" type="github">
  <diagram id="F57UFeRSTGnIIAzR6cSS" name="Page-1">
    <mxGraphModel dx="946" dy="589" grid="1" gridSize="10" guides="1" tooltips="1" connect="1" arrows="1" fold="1" page="1" pageScale="1" pageWidth="827" pageHeight="1169" math="0" shadow="0">
      <root>
        <mxCell id="0" />
        <mxCell id="1" parent="0" />
        <mxCell id="4NzYTMk8UUSKxN-wyGfG-1" value="一站式研发云平台" style="rounded=0;whiteSpace=wrap;html=1;" vertex="1" parent="1">
          <mxGeometry x="30" y="290" width="190" height="150" as="geometry" />
        </mxCell>
        <mxCell id="4NzYTMk8UUSKxN-wyGfG-2" value="代码中心" style="rounded=0;whiteSpace=wrap;html=1;" vertex="1" parent="1">
          <mxGeometry x="260" y="290" width="220" height="60" as="geometry" />
        </mxCell>
        <mxCell id="4NzYTMk8UUSKxN-wyGfG-4" value="制品中心" style="rounded=0;whiteSpace=wrap;html=1;" vertex="1" parent="1">
          <mxGeometry x="500" y="290" width="210" height="60" as="geometry" />
        </mxCell>
        <mxCell id="4NzYTMk8UUSKxN-wyGfG-5" value="持续中心 扫描/集成/测试/部署" style="rounded=0;whiteSpace=wrap;html=1;" vertex="1" parent="1">
          <mxGeometry x="260" y="370" width="450" height="60" as="geometry" />
        </mxCell>
        <mxCell id="4NzYTMk8UUSKxN-wyGfG-6" value="" style="rounded=0;whiteSpace=wrap;html=1;" vertex="1" parent="1">
          <mxGeometry x="30" y="460" width="680" height="90" as="geometry" />
        </mxCell>
        <mxCell id="4NzYTMk8UUSKxN-wyGfG-7" value="用户中心" style="rounded=0;whiteSpace=wrap;html=1;" vertex="1" parent="1">
          <mxGeometry x="60" y="475" width="120" height="60" as="geometry" />
        </mxCell>
        <mxCell id="4NzYTMk8UUSKxN-wyGfG-10" value="sonar" style="rounded=0;whiteSpace=wrap;html=1;" vertex="1" parent="1">
          <mxGeometry x="200" y="475" width="120" height="60" as="geometry" />
        </mxCell>
        <mxCell id="4NzYTMk8UUSKxN-wyGfG-11" value="ES" style="rounded=0;whiteSpace=wrap;html=1;" vertex="1" parent="1">
          <mxGeometry x="340" y="475" width="120" height="60" as="geometry" />
        </mxCell>
        <mxCell id="4NzYTMk8UUSKxN-wyGfG-12" value="MQ" style="rounded=0;whiteSpace=wrap;html=1;" vertex="1" parent="1">
          <mxGeometry x="480" y="475" width="120" height="60" as="geometry" />
        </mxCell>
      </root>
    </mxGraphModel>
  </diagram>
</mxfile>
